<svg xmlns="http://www.w3.org/2000/svg" width="24" height="24" viewBox="0 0 48 48"><g><path fill="#4285F4" d="M43.611 20.083H42V20H24v8h11.303C34.73 32.091 29.816 35 24 35c-6.627 0-12-5.373-12-12s5.373-12 12-12c2.761 0 5.304.99 7.312 2.617l6.093-6.093C33.527 5.16 28.977 3 24 3 12.954 3 4 11.954 4 23s8.954 20 20 20c11.045 0 19.5-7.955 19.5-19.5 0-1.3-.138-2.567-.389-3.817z"/><path fill="#34A853" d="M6.306 14.691l6.571 4.819C14.655 16.104 19.001 13 24 13c2.761 0 5.304.99 7.312 2.617l6.093-6.093C33.527 5.16 28.977 3 24 3c-7.732 0-14.41 4.41-17.694 11.691z"/><path fill="#FBBC05" d="M24 43c5.797 0 10.646-1.927 14.195-5.238l-6.547-5.367C29.816 35 24 35 24 35c-5.816 0-10.73-2.909-13.303-7.083l-6.571 4.819C9.59 40.59 16.268 45 24 45z"/><path fill="#EA4335" d="M43.611 20.083H42V20H24v8h11.303c-1.956 3.91-6.87 7.083-11.303 7.083-5.816 0-10.73-2.909-13.303-7.083l-6.571 4.819C9.59 40.59 16.268 45 24 45c7.732 0 14.41-4.41 17.694-11.691z"/></g></svg>
